<svg width="19" height="20" viewBox="0 0 19 20" fill="none" xmlns="http://www.w3.org/2000/svg">
<path fill-rule="evenodd" clip-rule="evenodd" d="M4 5.5C4 8.533 6.467 11 9.5 11C12.533 11 15 8.533 15 5.5C15 2.467 12.533 0 9.5 0C6.467 0 4 2.467 4 5.5ZM5 5.5C5 3.019 7.019 1 9.5 1C11.981 1 14 3.019 14 5.5C14 7.981 11.981 10 9.5 10C7.019 10 5 7.981 5 5.5ZM0 18.5C0 19.327 0.673 20 1.5 20H17.5C18.327 20 19 19.327 19 18.5C19 18.432 18.986 16.815 17.775 15.2C17.07 14.26 16.105 13.514 14.906 12.981C13.442 12.33 11.623 12 9.5 12C7.377 12 5.558 12.33 4.094 12.981C2.895 13.513 1.93 14.26 1.225 15.2C0.0139999 16.815 0 18.432 0 18.5ZM2.059 15.756C3.44 13.953 6.013 13 9.5 13C12.986 13 15.559 13.953 16.941 15.756C17.977 17.107 18 18.488 18 18.5C18 18.776 17.776 19 17.5 19H1.5C1.224 19 1 18.776 1 18.502C1.00002 18.5017 1.00006 18.5007 1.00011 18.499C1.00256 18.4254 1.04748 17.0764 2.059 15.756Z" fill="white"/>
</svg>
