<svg width="19" height="17" viewBox="0 0 19 17" fill="none" xmlns="http://www.w3.org/2000/svg">
<path d="M9.5 17C9.416 17 9.333 16.979 9.257 16.937C9.163 16.885 6.931 15.636 4.665 13.59C3.324 12.38 2.254 11.142 1.482 9.91C0.498 8.339 0 6.771 0 5.25C0 2.355 2.355 0 5.25 0C6.23 0 7.271 0.367 8.181 1.034C8.713 1.424 9.166 1.894 9.5 2.393C9.834 1.894 10.287 1.424 10.819 1.034C11.729 0.367 12.77 0 13.75 0C16.645 0 19 2.355 19 5.25C19 6.771 18.501 8.339 17.518 9.91C16.747 11.142 15.676 12.38 14.336 13.59C12.07 15.636 9.838 16.885 9.744 16.937C9.668 16.979 9.585 17 9.501 17H9.5ZM5.25 1C2.907 1 1 2.907 1 5.25C1 8.29 3.35 11.052 5.321 12.835C7.081 14.427 8.865 15.543 9.5 15.922C10.135 15.543 11.919 14.427 13.679 12.835C15.65 11.053 18 8.29 18 5.25C18 2.907 16.093 1 13.75 1C12.047 1 10.393 2.401 9.974 3.658C9.906 3.862 9.715 4 9.5 4C9.285 4 9.094 3.862 9.026 3.658C8.607 2.401 6.953 1 5.25 1Z" fill="white"/>
</svg>
