<svg width="12" height="20" viewBox="0 0 12 20" fill="none" xmlns="http://www.w3.org/2000/svg">
<path d="M5.999 20C5.846 20 5.701 19.93 5.606 19.809C5.549 19.736 4.188 17.995 2.809 15.424C1.997 13.911 1.349 12.425 0.884 11.008C0.297 9.221 0 7.536 0 6C0 2.692 2.692 0 6 0C9.308 0 12 2.692 12 6C12 7.536 11.702 9.22 11.116 11.008C10.651 12.425 10.003 13.911 9.191 15.424C7.811 17.995 6.451 19.736 6.394 19.809C6.299 19.93 6.154 20 6.001 20H5.999ZM5.999 1C3.242 1 0.999 3.243 0.999 6C0.999 9.254 2.462 12.664 3.69 14.951C4.592 16.632 5.499 17.965 5.999 18.661C6.501 17.962 7.414 16.621 8.317 14.935C9.54 12.652 10.999 9.248 10.999 6C10.999 3.243 8.756 1 5.999 1Z" fill="white"/>
<path d="M5.99902 9C4.34502 9 2.99902 7.654 2.99902 6C2.99902 4.346 4.34502 3 5.99902 3C7.65302 3 8.99902 4.346 8.99902 6C8.99902 7.654 7.65302 9 5.99902 9ZM5.99902 4C4.89602 4 3.99902 4.897 3.99902 6C3.99902 7.103 4.89602 8 5.99902 8C7.10202 8 7.99902 7.103 7.99902 6C7.99902 4.897 7.10202 4 5.99902 4Z" fill="white"/>
</svg>
