<svg width="89" height="33" viewBox="0 0 89 33" fill="none" xmlns="http://www.w3.org/2000/svg">
<path fill-rule="evenodd" clip-rule="evenodd" d="M14.4697 9.29029L16.3897 32.1303L28.6997 0.300293L14.4697 9.29029Z" fill="url(#paint0_linear)"/>
<path fill-rule="evenodd" clip-rule="evenodd" d="M13.39 7.84L0 6.15L28.28 0L13.39 7.84Z" fill="url(#paint1_linear)"/>
<path fill-rule="evenodd" clip-rule="evenodd" d="M12.8202 9.44006L15.7902 32.2801L10.2202 11.6101L0.410156 6.81006L12.8202 9.44006Z" fill="url(#paint2_linear)"/>
<path d="M28.2803 21.7403L33.7603 10.5503H34.9203L40.4603 21.7403H38.9503L37.4303 18.7403H31.2503L29.7703 21.7403H28.2803ZM31.8903 17.4203H36.8203L34.3503 12.4203L31.8903 17.4203Z" fill="black"/>
<path d="M46.9602 10.5499C47.7382 10.5149 48.5154 10.6347 49.2467 10.9025C49.978 11.1703 50.6488 11.5807 51.2202 12.1099C51.7588 12.636 52.1812 13.269 52.4602 13.9683C52.7392 14.6676 52.8687 15.4176 52.8402 16.1699C52.8678 16.9105 52.7407 17.6488 52.4669 18.3375C52.1931 19.0263 51.7787 19.6504 51.2502 20.1699C50.0753 21.2203 48.5343 21.7663 46.9602 21.6899H42.1602V10.5499H46.9602ZM46.9602 11.8399H43.5502V20.4599H46.9602C47.5518 20.4927 48.1441 20.407 48.7022 20.2078C49.2603 20.0086 49.773 19.6999 50.2102 19.2999C50.6131 18.888 50.9267 18.3975 51.1314 17.8589C51.3362 17.3204 51.4277 16.7454 51.4002 16.1699C51.4244 15.593 51.3295 15.0173 51.1213 14.4788C50.9131 13.9403 50.5962 13.4504 50.1902 13.0399C49.7607 12.6315 49.2533 12.3139 48.6984 12.106C48.1434 11.8981 47.5522 11.8042 46.9602 11.8299V11.8399Z" fill="black"/>
<path d="M55.2197 21.7403V10.5503H61.6397C62.5697 10.4982 63.4859 10.7941 64.2097 11.3803C64.5239 11.6699 64.7701 12.0254 64.9309 12.4213C65.0917 12.8172 65.163 13.2437 65.1397 13.6703C65.1578 14.4308 64.8974 15.1716 64.4075 15.7535C63.9177 16.3354 63.2321 16.7184 62.4797 16.8303L65.2797 21.7503H63.7397L60.9397 16.8503H56.6097V21.7503L55.2197 21.7403ZM56.6097 15.5403H61.5497C62.1222 15.5808 62.6901 15.414 63.1497 15.0703C63.3367 14.897 63.4823 14.684 63.5758 14.4468C63.6692 14.2097 63.7082 13.9545 63.6897 13.7003C63.704 13.4465 63.6631 13.1926 63.5699 12.9561C63.4767 12.7196 63.3333 12.5061 63.1497 12.3303C62.7202 11.9791 62.1734 11.8039 61.6197 11.8403H56.6197L56.6097 15.5403Z" fill="black"/>
<path d="M67.6797 21.7403V10.5503H76.4797V11.8403H69.0797V15.1203H73.5597V16.4103H69.0797V20.4103H76.9497V21.7003L67.6797 21.7403Z" fill="black"/>
<path d="M77.6201 21.7398L82.1801 16.1098L77.6801 10.5498H79.3801L83.0801 15.0298L86.7401 10.5498H88.4201L83.9101 16.0498L88.5401 21.7398H86.7301L83.0101 17.1698L79.2501 21.7798L77.6201 21.7398Z" fill="black"/>
<defs>
<linearGradient id="paint0_linear" x1="36.9297" y1="53.6903" x2="8.15973" y2="-21.2597" gradientUnits="userSpaceOnUse">
<stop stop-color="#00AACD"/>
<stop offset="0.49" stop-color="#00AACD"/>
<stop offset="0.67" stop-color="#50C1E6"/>
<stop offset="1" stop-color="#50C1E6"/>
</linearGradient>
<linearGradient id="paint1_linear" x1="12.74" y1="-3.51" x2="16.46" y2="14" gradientUnits="userSpaceOnUse">
<stop stop-color="#0082A7"/>
<stop offset="0.49" stop-color="#0088AF"/>
<stop offset="0.67" stop-color="#00B4EA"/>
<stop offset="1" stop-color="#00B4EA"/>
</linearGradient>
<linearGradient id="paint2_linear" x1="-36.4698" y1="74.5901" x2="56.3002" y2="-39.9799" gradientUnits="userSpaceOnUse">
<stop stop-color="#006D9B"/>
<stop offset="0.69" stop-color="#006D9B"/>
<stop offset="0.8" stop-color="#00A2D8"/>
<stop offset="1" stop-color="#00A2D8"/>
</linearGradient>
</defs>
</svg>
