<svg width="24" height="14" viewBox="0 0 24 14" fill="none" xmlns="http://www.w3.org/2000/svg">
<path d="M13.6089 3.13277C15.6201 2.69418 18.1676 2.3809 18.4358 0H2.7486C1.07263 0.125311 0 1.37842 0 2.69418V5.95226V13.9722C0.134078 13.4083 0.603352 10.902 1.87709 9.08503C2.81564 7.70661 4.15642 6.64147 5.63128 5.82695C7.91061 4.44853 10.7263 3.69667 13.6089 3.13277ZM24 0C24 0 23.6648 1.31576 21.4525 2.75684C19.2402 4.19791 15.1508 4.57384 12.8045 5.38836C10.5251 6.14023 8.11173 7.0174 6.50279 8.89707C5.29609 10.2755 4.69274 12.2178 4.2905 13.9722C4.2905 13.9722 7.3743 14.2228 10.5922 13.2203C12.3352 12.6564 14.1453 11.4659 14.8827 9.77424C15.419 8.45848 14.8827 7.26803 14.2123 6.3282C14.2123 6.3282 19.4413 5.2004 19.5754 8.7091C19.6425 11.1527 15.7542 13.2203 13.676 13.9722H21.1173C22.7263 13.9722 24 12.719 24 11.2153V0Z" fill="#009E87"/>
</svg>
