<svg width="112" height="42" viewBox="0 0 112 42" fill="none" xmlns="http://www.w3.org/2000/svg">
<path fill-rule="evenodd" clip-rule="evenodd" d="M18.3037 12.0874L20.7324 41.8049L36.3042 0.390381L18.3037 12.0874Z" fill="url(#paint0_linear)"/>
<path fill-rule="evenodd" clip-rule="evenodd" d="M16.9379 10.2007L0 8.00186L35.7732 0L16.9379 10.2007Z" fill="url(#paint1_linear)"/>
<path fill-rule="evenodd" clip-rule="evenodd" d="M16.2177 12.2825L19.9747 42L12.9288 15.1059L0.519531 8.8606L16.2177 12.2825Z" fill="url(#paint2_linear)"/>
<path d="M35.7734 28.2863L42.7054 13.7268H44.1728L51.1807 28.2863H49.2706L47.3479 24.3829H39.5304L37.6582 28.2863H35.7734ZM40.34 22.6655H46.5762L43.4518 16.1599L40.34 22.6655Z" fill="black"/>
<path d="M59.4029 13.7267C60.387 13.6811 61.3702 13.8371 62.2952 14.1855C63.2203 14.534 64.0689 15.068 64.7916 15.7565C65.473 16.4409 66.0073 17.2646 66.3603 18.1745C66.7132 19.0843 66.8769 20.0601 66.8409 21.039C66.8758 22.0027 66.715 22.9632 66.3687 23.8594C66.0224 24.7555 65.4982 25.5675 64.8296 26.2435C63.3434 27.6102 61.3941 28.3206 59.4029 28.2212H53.3311V13.7267H59.4029ZM59.4029 15.4052H55.0894V26.6208H59.4029C60.1513 26.6634 60.9005 26.5519 61.6065 26.2927C62.3124 26.0335 62.961 25.632 63.514 25.1115C64.0237 24.5756 64.4204 23.9374 64.6794 23.2367C64.9384 22.5359 65.0541 21.7878 65.0193 21.039C65.0501 20.2884 64.93 19.5394 64.6666 18.8387C64.4033 18.138 64.0023 17.5007 63.4887 16.9665C62.9455 16.4352 62.3037 16.0219 61.6016 15.7514C60.8996 15.4809 60.1518 15.3587 59.4029 15.3922V15.4052Z" fill="black"/>
<path d="M69.8516 28.2864V13.7269H77.9726C79.1491 13.6591 80.3079 14.044 81.2236 14.8068C81.621 15.1836 81.9325 15.6461 82.1359 16.1612C82.3392 16.6763 82.4294 17.2313 82.4 17.7864C82.4228 18.7758 82.0934 19.7397 81.4738 20.4969C80.8542 21.254 79.9869 21.7523 79.0352 21.8979L82.5771 28.2994H80.6291L77.0872 21.9239H71.6099V28.2994L69.8516 28.2864ZM71.6099 20.2195H77.8588C78.5829 20.2722 79.3013 20.0551 79.8827 19.6079C80.1192 19.3825 80.3034 19.1052 80.4217 18.7967C80.5399 18.4881 80.5892 18.1562 80.5658 17.8254C80.5839 17.4952 80.5322 17.1648 80.4142 16.8571C80.2963 16.5494 80.115 16.2716 79.8827 16.0429C79.3394 15.5859 78.6477 15.358 77.9473 15.4053H71.6225L71.6099 20.2195Z" fill="black"/>
<path d="M85.6133 28.2863V13.7268H96.745V15.4052H87.3842V19.6729H93.0513V21.3513H87.3842V26.5558H97.3395V28.2342L85.6133 28.2863Z" fill="black"/>
<path d="M98.1865 28.2863L103.955 20.961L98.2624 13.7268H100.413L105.093 19.5558L109.723 13.7268H111.848L106.143 20.8829L112 28.2863H109.71L105.005 22.3402L100.248 28.3383L98.1865 28.2863Z" fill="black"/>
<defs>
<linearGradient id="paint0_linear" x1="46.7148" y1="69.8569" x2="8.49651" y2="-26.941" gradientUnits="userSpaceOnUse">
<stop stop-color="#00AACD"/>
<stop offset="0.49" stop-color="#00AACD"/>
<stop offset="0.67" stop-color="#50C1E6"/>
<stop offset="1" stop-color="#50C1E6"/>
</linearGradient>
<linearGradient id="paint1_linear" x1="16.1157" y1="-4.56691" x2="21.0817" y2="18.1587" gradientUnits="userSpaceOnUse">
<stop stop-color="#0082A7"/>
<stop offset="0.49" stop-color="#0088AF"/>
<stop offset="0.67" stop-color="#00B4EA"/>
<stop offset="1" stop-color="#00B4EA"/>
</linearGradient>
<linearGradient id="paint2_linear" x1="-46.1324" y1="97.0502" x2="75.2353" y2="-48.6731" gradientUnits="userSpaceOnUse">
<stop stop-color="#006D9B"/>
<stop offset="0.69" stop-color="#006D9B"/>
<stop offset="0.8" stop-color="#00A2D8"/>
<stop offset="1" stop-color="#00A2D8"/>
</linearGradient>
</defs>
</svg>
