<svg width="19" height="18" viewBox="0 0 19 18" fill="none" xmlns="http://www.w3.org/2000/svg">
<path d="M0.500176 17.001C0.275176 17.001 0.0781761 16.851 0.0181761 16.634C-0.0418239 16.417 0.0501761 16.187 0.243176 16.072C1.93418 15.058 2.63518 13.583 2.88418 12.893C1.04618 11.486 0.000176137 9.539 0.000176137 7.501C0.000176137 6.472 0.258176 5.475 0.768176 4.537C1.25418 3.643 1.94818 2.842 2.82918 2.156C4.61618 0.766 6.98518 0 9.50018 0C12.0152 0 14.3842 0.766 16.1712 2.156C17.0522 2.841 17.7462 3.642 18.2322 4.537C18.7422 5.474 19.0002 6.471 19.0002 7.501C19.0002 8.531 18.7422 9.527 18.2322 10.465C17.7462 11.359 17.0522 12.16 16.1712 12.846C14.3842 14.236 12.0152 15.002 9.50018 15.002C8.46718 15.002 7.45318 14.873 6.48418 14.617C6.05518 14.903 5.25318 15.41 4.29518 15.887C2.80718 16.627 1.53118 17.002 0.501176 17.002L0.500176 17.001ZM9.50018 1.001C4.81318 1.001 1.00018 3.917 1.00018 7.501C1.00018 9.316 2.00518 11.063 3.75618 12.293C3.92818 12.414 4.00618 12.629 3.95218 12.832C3.83518 13.268 3.43718 14.465 2.37218 15.62C3.67418 15.164 5.07618 14.373 6.11118 13.661C6.23418 13.576 6.38818 13.551 6.53218 13.592C7.48018 13.863 8.47918 14.001 9.50018 14.001C14.1872 14.001 18.0002 11.085 18.0002 7.501C18.0002 3.917 14.1872 1.001 9.50018 1.001Z" fill="white"/>
</svg>
