<svg width="9" height="7" viewBox="0 0 9 7" fill="none" xmlns="http://www.w3.org/2000/svg">
<path d="M8.92837 2.98987L6.00965 0.0711438C5.91479 -0.0237146 5.76058 -0.0237146 5.66573 0.0711438C5.57087 0.166002 5.57087 0.320208 5.66573 0.415067L8.16901 2.91836H0.243227C0.108966 2.91836 0 3.02732 0 3.16158C0 3.29584 0.108966 3.40481 0.243227 3.40481H8.16901L5.66573 5.9081C5.57087 6.00296 5.57087 6.15717 5.66573 6.25202C5.7134 6.2997 5.77566 6.32305 5.83793 6.32305C5.9002 6.32305 5.96246 6.29921 6.01013 6.25202L8.92886 3.3333C9.02371 3.23844 9.02371 3.08424 8.92886 2.98938L8.92837 2.98987Z" fill="#BFBFBF"/>
</svg>
